<svg width="28" height="35" viewBox="0 0 28 35" fill="none" xmlns="http://www.w3.org/2000/svg">
<g id="vuesax/linear/mobile">
<g id="mobile">
<path id="Vector" d="M27 9.5V25.5C27 31.9 25.375 33.5 18.875 33.5H9.125C2.625 33.5 1 31.9 1 25.5V9.5C1 3.1 2.625 1.5 9.125 1.5H18.875C25.375 1.5 27 3.1 27 9.5Z" stroke="white" stroke-opacity="0.7" stroke-width="1.5" stroke-linecap="round" stroke-linejoin="round"/>
<path id="Vector_2" d="M17.25 7.1H10.75" stroke="white" stroke-opacity="0.7" stroke-width="1.5" stroke-linecap="round" stroke-linejoin="round"/>
<path id="Vector_3" d="M13.9992 28.86C15.3903 28.86 16.518 27.7497 16.518 26.38C16.518 25.0103 15.3903 23.9 13.9992 23.9C12.6082 23.9 11.4805 25.0103 11.4805 26.38C11.4805 27.7497 12.6082 28.86 13.9992 28.86Z" stroke="white" stroke-opacity="0.7" stroke-width="1.5" stroke-linecap="round" stroke-linejoin="round"/>
</g>
</g>
</svg>
