<svg width="76" height="76" viewBox="0 0 76 76" fill="none" xmlns="http://www.w3.org/2000/svg">
<path id="outline" fill-rule="evenodd" clip-rule="evenodd" d="M35.2857 8.14286V0H40.7143V8.14286H35.2857ZM50.5781 10.7861L54.6495 3.73413L59.3508 6.44842L55.2794 13.5003L50.5781 10.7861ZM38 57C48.4934 57 57 48.4934 57 38C57 27.5066 48.4934 19 38 19C27.5066 19 19 27.5066 19 38C19 48.4934 27.5066 57 38 57ZM38 62.4286C51.4915 62.4286 62.4286 51.4915 62.4286 38C62.4286 24.5085 51.4915 13.5714 38 13.5714C24.5085 13.5714 13.5714 24.5085 13.5714 38C13.5714 51.4915 24.5085 62.4286 38 62.4286ZM67.8571 35.2857H76V40.7143H67.8571V35.2857ZM69.5518 16.6494L62.4998 20.7208L65.2141 25.4221L72.266 21.3506L69.5518 16.6494ZM16.6494 6.44842L20.7208 13.5003L25.4221 10.7861L21.3506 3.73413L16.6494 6.44842ZM10.7859 25.4221L3.73397 21.3506L6.44825 16.6494L13.5002 20.7208L10.7859 25.4221ZM35.2857 67.8571V76H40.7143V67.8571H35.2857ZM8.14286 35.2857H0V40.7143H8.14286V35.2857ZM3.73382 54.6494L10.7857 50.5779L13.5 55.2792L6.4481 59.3506L3.73382 54.6494ZM20.721 62.5001L16.6495 69.5521L21.3508 72.2663L25.4222 65.2144L20.721 62.5001ZM54.6494 72.2663L50.5779 65.2144L55.2792 62.5001L59.3506 69.5521L54.6494 72.2663ZM62.5 55.2792L69.5519 59.3506L72.2662 54.6494L65.2143 50.5779L62.5 55.2792Z" fill="url(#paint0_linear_458_2651)"/>
<defs>
<linearGradient id="paint0_linear_458_2651" x1="38" y1="0" x2="38" y2="76" gradientUnits="userSpaceOnUse">
<stop stop-color="#EFC977"/>
<stop offset="1" stop-color="#E07256"/>
</linearGradient>
</defs>
</svg>
